<?xml version="1.0" encoding="utf-8"?>
<!DOCTYPE svg PUBLIC "-//W3C//DTD SVG 1.1//EN" "http://www.w3.org/Graphics/SVG/1.1/DTD/svg11.dtd">
<svg version="1.1" id="Layer_1" xmlns="http://www.w3.org/2000/svg" xmlns:xlink="http://www.w3.org/1999/xlink" x="0px" y="0px" width="212.13px" height="242px" viewBox="0 0 212.13 242" enable-background="new 0 0 212.13 242" xml:space="preserve">
  <g>
    <polygon fill-rule="evenodd" clip-rule="evenodd" fill="#482a15" points="106.318,5.74 206.752,63.725 206.752,179.699 
                                                                            106.318,237.685 5.885,179.699 5.885,63.725 	"/>
    <path fill-rule="evenodd" clip-rule="evenodd" fill="#cbcbcb" d="M106.318,39.218L34.877,80.466v82.495l71.441,41.246
                                                                    l100.434-57.987v-33.479c-33.476,19.326-66.955,38.661-100.434,57.987L63.87,146.22V97.205l42.448-24.507l27.951,16.138
                                                                    l-27.876,16.094l14.451,25.028l56.915-32.859V80.466L106.318,39.218z"/>
    <polygon fill-rule="evenodd" clip-rule="evenodd" fill="#d8d8d8" points="106.394,104.93 91.942,113.272 91.942,129.958 
                                                                            106.394,138.303 120.845,129.958 120.845,113.272 	"/>
  </g>
</svg>
